<svg width="778" height="915" viewBox="0 0 778 915" fill="none" xmlns="http://www.w3.org/2000/svg">
<path fill-rule="evenodd" clip-rule="evenodd" d="M397.687 325.272C404.3 330.303 408.235 336.694 403.941 343.888C400.319 349.958 392.004 350.02 383.126 347.788C384.457 351.556 386.013 355.243 387.787 358.83C391.65 366.638 394.888 372.276 397.5 375.742C402.471 382.339 411.657 376.037 425.058 356.837C430.348 349.258 439.007 344.742 448.25 344.742C449.095 344.742 449.937 344.828 450.765 344.999C457.511 346.387 461.853 352.982 460.464 359.728C445.574 432.052 433.756 471.509 425.012 478.099C411.016 488.645 398.01 535.263 398.01 535.263L319.446 523.87L310.719 489.603C308.063 479.173 307.623 468.302 309.427 457.691L328.937 342.957C330.24 335.291 332.655 327.856 336.103 320.887L343.459 306.022C349.229 294.364 361.481 287.358 374.455 288.299L444.641 293.39C450.613 293.823 455.826 297.598 458.103 303.136C461.417 311.202 457.566 320.428 449.5 323.742C442.913 326.45 425.641 326.959 397.687 325.272Z" fill="#548d27"/>
<path fill-rule="evenodd" clip-rule="evenodd" d="M317 388.992L303.242 412.331C303.081 412.605 302.931 412.886 302.794 413.173L254 515.242L263 568.742L341 509.242L337 450.742L314 466.242L326.424 392.429C326.892 389.651 325.019 387.02 322.241 386.553C320.157 386.202 318.073 387.172 317 388.992Z" fill="#7abf47"/>
<path fill-rule="evenodd" clip-rule="evenodd" d="M263.5 401.185C244.462 394.224 225.425 387.262 206.387 380.301C159.704 363.231 108.023 387.236 90.9525 433.919C87.7052 442.8 85.8777 452.136 85.5372 461.586L82 559.742H284C270.333 454.037 263.5 401.185 263.5 401.185Z" fill="#c5e4ac"/>
<path fill-rule="evenodd" clip-rule="evenodd" d="M254.862 210.726L301.102 206.879L309.067 153.393C309.311 151.754 310.837 150.623 312.476 150.868C313.788 151.063 314.816 152.097 315.004 153.41L323.591 213.464C324.451 219.478 320.272 225.051 314.258 225.911C314.209 225.918 314.161 225.924 314.112 225.931L259.788 232.953C252.998 233.83 246.747 229.136 245.696 222.371C244.837 216.845 248.621 211.67 254.147 210.811C254.384 210.774 254.623 210.746 254.862 210.726Z" fill="#9fd177"/>
<mask id="mask0_8_749" style="mask-type:alpha" maskUnits="userSpaceOnUse" x="83" y="0" width="208" height="406">
<path d="M136.693 401.564C133.455 402.811 129.885 403.345 126.196 402.992C124.828 402.862 123.473 402.615 122.146 402.256C109.156 398.738 101.478 385.355 104.996 372.365L110.446 352.242L110.367 352.286C106.1 354.638 101.062 355.162 96.4023 353.736C86.8892 350.826 81.5363 340.756 84.4461 331.242L112.897 232.291C115.241 220.767 119.435 206.57 126.206 186.003L127 183.242L127.032 183.501C135.37 158.315 147.428 123.828 164.446 73.7424C164.762 72.8117 174.128 44.6784 174.446 43.7424C176.46 41.0576 180.269 40.5135 182.953 42.5271C184.042 43.3438 184.826 44.5025 185.178 45.8175L191.446 69.2424L200.047 6.05666C200.569 2.226 204.097 -0.45665 207.928 0.0648015C210.657 0.436338 212.915 2.37402 213.696 5.01543L214.946 9.2424L286.568 242.014C289.471 251.447 290.946 261.26 290.946 271.129V364.742C290.946 387.386 272.59 405.742 249.946 405.742H154.742C148.275 405.742 142.146 404.242 136.693 401.564Z" fill="white"/>
</mask>
<g mask="url(#mask0_8_749)">
<path d="M136.693 401.564C133.455 402.811 129.885 403.345 126.196 402.992C124.828 402.862 123.473 402.615 122.146 402.256C109.156 398.738 101.478 385.355 104.996 372.365L110.446 352.242L110.367 352.286C106.1 354.638 101.062 355.162 96.4023 353.736C86.8892 350.826 81.5363 340.756 84.4461 331.242L112.897 232.291C115.241 220.767 119.435 206.57 126.206 186.003L127 183.242L127.032 183.501C135.37 158.315 147.428 123.828 164.446 73.7424C164.762 72.8117 174.128 44.6784 174.446 43.7424C176.46 41.0576 180.269 40.5135 182.953 42.5271C184.042 43.3438 184.826 44.5025 185.178 45.8175L191.446 69.2424L200.047 6.05666C200.569 2.226 204.097 -0.45665 207.928 0.0648015C210.657 0.436338 212.915 2.37402 213.696 5.01543L214.946 9.2424L286.568 242.014C289.471 251.447 290.946 261.26 290.946 271.129V364.742C290.946 387.386 272.59 405.742 249.946 405.742H154.742C148.275 405.742 142.146 404.242 136.693 401.564Z" fill="#c5e4ac"/>
<path fill-rule="evenodd" clip-rule="evenodd" d="M288.446 252.742C286.446 247.409 283.446 245.242 279.446 246.242C275.446 247.242 272.779 250.909 271.446 257.242C265.281 247.225 253.948 241.594 242.241 242.731C238.821 243.063 235.056 243.567 230.946 244.242C206.678 248.23 195.153 272.194 193.946 284.742C192.92 295.411 193.763 288.286 194 315.242C194.051 321.044 191.171 336.466 185.36 361.509C182.614 373.345 189.982 385.166 201.818 387.912C203.403 388.28 205.023 388.471 206.65 388.481C228.7 388.622 241.132 388.542 243.946 388.242C258.828 386.657 262.054 383.242 273 383.242C282.233 383.242 286.733 385.576 286.5 390.242C302.485 383.969 311.134 368.135 312.446 342.742C313.758 317.35 305.758 287.35 288.446 252.742Z" fill="#B0BFDC"/>
</g>
<path fill-rule="evenodd" clip-rule="evenodd" d="M241.946 365.242H249.946L247.645 375.725C247.471 376.521 246.831 377.131 246.028 377.268C244.94 377.454 243.906 376.722 243.72 375.633L241.946 365.242ZM280.946 365.242H288.946L286.645 375.725C286.471 376.521 285.831 377.131 285.028 377.268C283.94 377.454 282.906 376.722 282.72 375.633L280.946 365.242Z" fill="white"/>
<mask id="mask1_8_749" style="mask-type:alpha" maskUnits="userSpaceOnUse" x="412" y="547" width="355" height="342">
<path d="M608.046 649.811C630.191 595.367 645.411 565.156 653.704 559.178C663.871 551.851 675.415 553.628 680.292 559.662C696.374 544.078 712.3 543.747 728.071 558.668C729.431 559.586 730.677 560.511 731.808 561.442C737.213 561.377 742.681 562.434 748.213 564.611C776.001 575.552 772.105 598.174 736.525 632.479L634.749 749.608C622.663 763.516 606.936 773.781 589.309 779.265C584.767 780.678 578.968 785.445 571.911 793.566C565.642 800.781 562.238 806.204 561.701 809.833C558.923 828.602 550.856 846.155 538.44 860.444L525.4 875.451C524.337 876.674 523.195 877.825 521.979 878.897C506.685 892.389 483.25 890.854 469.636 875.469L445.701 848.419L445.513 848.591L445.231 847.888L440.642 842.702L442.437 840.93L412.47 766.29L538.767 649.3L606.744 651.544C607.179 650.964 607.613 650.387 608.046 649.811Z" fill="white"/>
</mask>
<g mask="url(#mask1_8_749)">
<path d="M608.046 649.811C630.191 595.367 645.411 565.156 653.704 559.178C663.871 551.851 675.415 553.628 680.292 559.662C696.374 544.078 712.3 543.747 728.071 558.668C729.431 559.586 730.677 560.511 731.808 561.442C737.213 561.377 742.681 562.434 748.213 564.611C776.001 575.552 772.105 598.174 736.525 632.479L634.749 749.608C622.663 763.516 606.936 773.781 589.309 779.265C584.767 780.678 578.968 785.445 571.911 793.566C565.641 800.781 562.238 806.204 561.701 809.833C558.923 828.602 550.856 846.155 538.44 860.444L525.4 875.451C524.337 876.674 523.195 877.825 521.979 878.897C506.685 892.389 483.25 890.854 469.636 875.469L445.701 848.42L445.513 848.591L445.231 847.888L440.642 842.702L442.437 840.93L412.47 766.29L538.767 649.3L606.743 651.544C607.179 650.964 607.613 650.387 608.046 649.811Z" fill="#548d27"/>
</g>
<mask id="mask2_8_749" style="mask-type:alpha" maskUnits="userSpaceOnUse" x="200" y="309" width="51" height="29">
<path d="M236.946 309.742H214.946C207.214 309.742 200.946 316.01 200.946 323.742C200.946 331.474 207.214 337.742 214.946 337.742H236.946C244.678 337.742 250.946 331.474 250.946 323.742C250.946 316.01 244.678 309.742 236.946 309.742Z" fill="white"/>
</mask>
<g mask="url(#mask2_8_749)">
<path d="M236.946 309.742H214.946C207.214 309.742 200.946 316.01 200.946 323.742C200.946 331.474 207.214 337.742 214.946 337.742H236.946C244.678 337.742 250.946 331.474 250.946 323.742C250.946 316.01 244.678 309.742 236.946 309.742Z" fill="white"/>
<path d="M251.446 320.742C251.446 314.667 246.521 309.742 240.446 309.742C234.371 309.742 229.446 314.667 229.446 320.742V326.742C229.446 332.818 234.371 337.742 240.446 337.742C246.521 337.742 251.446 332.818 251.446 326.742V320.742Z" fill="#2B2B2B"/>
</g>
<mask id="mask3_8_749" style="mask-type:alpha" maskUnits="userSpaceOnUse" x="277" y="309" width="14" height="29">
<path d="M290.946 309.742V337.742C283.49 337.742 277.446 331.698 277.446 324.242V323.242C277.446 315.787 283.49 309.742 290.946 309.742Z" fill="white"/>
</mask>
<g mask="url(#mask3_8_749)">
<path d="M290.946 309.742V337.742C283.49 337.742 277.446 331.698 277.446 324.242V323.242C277.446 315.787 283.49 309.742 290.946 309.742Z" fill="white"/>
<path d="M306.946 320.742C306.946 314.667 302.021 309.742 295.946 309.742C289.871 309.742 284.946 314.667 284.946 320.742V326.742C284.946 332.818 289.871 337.742 295.946 337.742C302.021 337.742 306.946 332.818 306.946 326.742V320.742Z" fill="#2B2B2B"/>
</g>
<path fill-rule="evenodd" clip-rule="evenodd" d="M513 733.242C529.121 730.762 542.744 719.975 548.855 704.852L549 704.492C555.26 688.998 553.495 671.415 544.28 657.474L539.5 650.242C557.033 656.618 576.415 647.573 582.791 630.04C582.94 629.63 583.081 629.218 583.214 628.803L589 610.742C560.172 613.526 539.839 611.526 528 604.742C516.161 597.958 506.161 589.625 498 579.742L488.5 595.742L513 733.242Z" fill="#7abf47"/>
<mask id="mask4_8_749" style="mask-type:alpha" maskUnits="userSpaceOnUse" x="277" y="733" width="422" height="158">
<path d="M539.451 804.089C595.177 785.198 628.027 776.915 638 779.242C650.225 782.095 656.472 791.921 655.117 799.52C677.474 801.427 688.196 813.168 687.285 834.742L684.211 835.978C689.51 840.586 693.451 846.508 696.035 853.742C706.035 881.742 686.368 893.576 637.035 889.242H481.554C463.091 889.242 444.989 884.131 429.252 874.475C425.198 871.986 417.78 870.742 407 870.742C397.422 870.742 391.084 871.725 387.986 873.689C371.969 883.848 353.393 889.242 334.426 889.242H314.504C312.881 889.242 311.259 889.136 309.65 888.923C289.392 886.241 275.143 867.646 277.824 847.388L282.538 811.771L282.285 811.742L282.631 811.071L283.535 804.242L286.055 804.434L322.785 733.242L494.285 751.742L537.285 804.242C538.009 804.191 538.731 804.14 539.451 804.089Z" fill="white"/>
</mask>
<g mask="url(#mask4_8_749)">
<path d="M539.451 804.089C595.177 785.198 628.027 776.915 638 779.242C650.225 782.095 656.472 791.921 655.117 799.52C677.474 801.427 688.196 813.168 687.285 834.742L684.211 835.978C689.51 840.586 693.451 846.508 696.035 853.742C706.035 881.742 686.368 893.576 637.035 889.242H481.554C463.091 889.242 444.989 884.131 429.252 874.475C425.198 871.986 417.78 870.742 407 870.742C397.422 870.742 391.084 871.725 387.986 873.689C371.969 883.848 353.393 889.242 334.426 889.242H314.504C312.881 889.242 311.259 889.136 309.65 888.923C289.392 886.241 275.143 867.646 277.824 847.388L282.538 811.771L282.285 811.742L282.631 811.071L283.535 804.242L286.055 804.434L322.785 733.242L494.285 751.742L537.285 804.242C538.009 804.191 538.731 804.14 539.451 804.089Z" fill="#B0BFDC"/>
<path d="M689.137 834.093C688.742 833.531 687.977 832.63 686.802 831.506C684.892 829.679 682.496 827.864 679.577 826.179C665.665 818.146 645.476 815.764 618.037 822.297C616.962 822.553 616.299 823.631 616.554 824.706C616.81 825.78 617.889 826.444 618.963 826.188C645.444 819.883 664.586 822.142 677.577 829.643C680.213 831.165 682.354 832.786 684.037 834.396C684.615 834.949 685.093 835.458 685.474 835.907C685.689 836.16 685.817 836.326 685.863 836.392C686.498 837.296 687.745 837.514 688.649 836.879C689.553 836.244 689.772 834.997 689.137 834.093Z" fill="#7181A1"/>
<path d="M695.164 851.242C696.268 851.242 697.164 852.138 697.164 853.242C697.164 854.347 696.268 855.242 695.164 855.242C692.234 855.242 678.434 852.073 668.916 848.955C662.732 846.93 657.972 844.887 655.066 842.859C650.922 839.967 650.048 836.31 654.037 833.59C661.993 828.166 673.399 828.166 688.163 833.356C689.205 833.722 689.753 834.864 689.387 835.906C689.021 836.948 687.879 837.495 686.837 837.129C673.153 832.319 663.001 832.319 656.29 836.895C655.108 837.701 655.197 838.073 657.355 839.579C659.859 841.326 664.322 843.241 670.161 845.154C679.301 848.148 692.775 851.242 695.164 851.242ZM670.5 797.242C671.605 797.242 672.5 798.138 672.5 799.242C672.5 800.347 671.605 801.242 670.5 801.242C667.233 801.242 664.902 800.989 660.104 800.259L659.968 800.238C653.132 799.197 649.8 798.994 644.52 799.692C637.479 800.622 628.94 803.326 617.676 808.453C616.671 808.911 615.485 808.467 615.027 807.462C614.57 806.456 615.014 805.27 616.019 804.813C627.617 799.534 636.521 796.713 643.996 795.726C649.736 794.968 653.392 795.19 660.57 796.283L660.706 796.304C665.316 797.006 667.491 797.242 670.5 797.242Z" fill="#7181A1"/>
</g>
<path fill-rule="evenodd" clip-rule="evenodd" d="M270.287 296.271L284.521 340.838C285.99 345.436 283.453 350.354 278.855 351.823C278.044 352.082 277.199 352.221 276.348 352.236L271.7 352.317C267.835 352.385 264.646 349.306 264.579 345.44C264.578 345.407 264.578 345.373 264.578 345.34L264.429 297.193C264.424 295.536 265.763 294.189 267.42 294.184C268.729 294.18 269.889 295.024 270.287 296.271Z" fill="#7181A1"/>
<mask id="mask5_8_749" style="mask-type:alpha" maskUnits="userSpaceOnUse" x="49" y="446" width="490" height="359">
<path d="M87 536.742L51.4066 695.21C41.724 738.319 68.8212 781.115 111.93 790.798C117.684 792.09 123.564 792.742 129.462 792.742H211.216C248.56 792.742 282.792 771.935 299.986 738.785L334.5 672.242L283.5 804.242H306.941C332.565 804.242 356.788 792.547 372.723 772.481L388 753.242V771.242C388 789.468 402.775 804.242 421 804.242C440.809 804.242 458.498 791.842 465.253 773.22L472.5 753.242L480.557 768.748C491.889 790.557 514.422 804.242 539 804.242C515.686 734.694 502.353 678.86 499 636.742C495.647 594.625 499.48 531.125 510.5 446.242H411.5L233 553.242L87 536.742Z" fill="white"/>
</mask>
<g mask="url(#mask5_8_749)">
<path d="M87 536.742L51.4066 695.21C41.724 738.319 68.8212 781.115 111.93 790.798C117.684 792.09 123.564 792.742 129.462 792.742H211.216C248.56 792.742 282.792 771.935 299.986 738.785L334.5 672.242L283.5 804.242H306.941C332.565 804.242 356.788 792.547 372.723 772.481L388 753.242V771.242C388 789.468 402.775 804.242 421 804.242C440.809 804.242 458.498 791.842 465.253 773.22L472.5 753.242L480.557 768.748C491.889 790.557 514.422 804.242 539 804.242C515.686 734.694 502.353 678.86 499 636.742C495.647 594.625 499.48 531.125 510.5 446.242H411.5L233 553.242L87 536.742Z" fill="#7abf47"/>
</g>
<path d="M205.861 375.157C211.169 369.848 215.154 367.242 217.446 367.242H289.946C291.051 367.242 291.946 366.347 291.946 365.242C291.946 364.138 291.051 363.242 289.946 363.242H217.446C213.738 363.242 209.057 366.303 203.032 372.328C202.251 373.109 202.251 374.376 203.032 375.157C203.813 375.938 205.079 375.938 205.861 375.157Z" fill="#7181A1"/>
<mask id="mask6_8_749" style="mask-type:alpha" maskUnits="userSpaceOnUse" x="202" y="309" width="48" height="29">
<path d="M249.073 316.742H202.819C205.24 312.558 209.764 309.742 214.946 309.742H236.946C242.128 309.742 246.653 312.558 249.073 316.742V316.742ZM248.437 331.742C245.907 335.369 241.704 337.742 236.946 337.742H214.946C210.189 337.742 205.986 335.369 203.456 331.742H248.437Z" fill="white"/>
</mask>
<g mask="url(#mask6_8_749)">
<path d="M249.073 316.742H202.819C205.24 312.558 209.764 309.742 214.946 309.742H236.946C242.128 309.742 246.653 312.558 249.073 316.742V316.742ZM248.437 331.742C245.907 335.369 241.704 337.742 236.946 337.742H214.946C210.189 337.742 205.986 335.369 203.456 331.742H248.437Z" fill="#7181A1"/>
</g>
<path fill-rule="evenodd" clip-rule="evenodd" d="M505.352 395.755L420.654 448.547L543.146 471.025L597.21 430.96C608.697 422.447 617.842 411.211 623.776 398.32L638.623 366.062C643.516 355.433 643.088 343.232 637.469 333.14L629.314 318.491L628.904 318.747C627.393 309.929 625.597 299.44 623.514 287.279C622.365 280.575 618.24 274.777 612.263 271.467L606.669 268.368L596.975 263.852L596.161 255.276L538.735 205.212C538.566 205.065 538.394 204.921 538.219 204.781C531.299 199.249 521.055 200.384 515.336 207.316C510.201 213.542 509.85 222.114 514.014 228.489C509.546 229.411 505.521 232.32 503.369 236.705C503.058 237.339 502.793 237.993 502.575 238.662C499.555 247.935 504.081 257.842 513.055 261.606L562.123 282.187C564.863 311.413 566.234 326.026 566.234 326.026C566.234 326.026 516.382 363.067 501.783 365.733C492.051 367.51 484.638 365.348 479.547 359.245L500.678 298.532C500.739 298.357 500.797 298.181 500.852 298.004C503.708 288.865 498.564 279.296 489.362 276.631C479.741 273.844 469.489 279.158 466.22 288.626C446.768 344.959 437.929 378.336 439.703 388.757C442.622 405.9 419.826 448.834 419.826 448.834L505.352 395.755Z" fill="#B0BFDC"/>
<mask id="mask7_8_749" style="mask-type:alpha" maskUnits="userSpaceOnUse" x="278" y="309" width="13" height="29">
<path d="M290.946 316.742H278.819C281.24 312.558 285.764 309.742 290.946 309.742V316.742ZM290.946 337.742C286.189 337.742 281.986 335.369 279.456 331.742H290.946V337.742Z" fill="white"/>
</mask>
<g mask="url(#mask7_8_749)">
<path d="M290.946 316.742H278.819C281.24 312.558 285.764 309.742 290.946 309.742V316.742ZM290.946 337.742C286.189 337.742 281.986 335.369 279.456 331.742H290.946V337.742Z" fill="#7181A1"/>
</g>
<path fill-rule="evenodd" clip-rule="evenodd" d="M551.887 181.288L485.461 179.32C478.346 179.109 472.205 184.271 471.19 191.316L449.864 339.241L532.906 349.604L545.927 340.583L565.346 197.16C566.383 189.498 561.013 182.446 553.351 181.408C552.865 181.343 552.376 181.303 551.887 181.288Z" fill="#2B2B2B"/>
<path d="M499.5 336.742C493.701 336.742 489 332.041 489 326.242C489 320.443 493.701 315.742 499.5 315.742C505.299 315.742 510 320.443 510 326.242C510 332.041 505.299 336.742 499.5 336.742ZM499.5 332.742C503.09 332.742 506 329.832 506 326.242C506 322.652 503.09 319.742 499.5 319.742C495.91 319.742 493 322.652 493 326.242C493 329.832 495.91 332.742 499.5 332.742ZM527.364 187.589C527.653 187.599 527.816 187.586 527.888 187.566C527.884 187.568 527.882 187.567 527.912 187.542C528.025 187.449 528.148 187.26 528.255 186.964C528.413 186.528 528.481 186.084 528.523 184.883L528.528 184.728L529.731 179.825L532.644 180.54L531.515 185.144C531.461 186.528 531.347 187.237 531.076 187.985C530.797 188.756 530.38 189.395 529.821 189.856C529.132 190.425 528.414 190.627 527.259 190.587L507.399 189.893C506.244 189.853 505.541 189.601 504.894 188.986C504.369 188.487 503.997 187.82 503.772 187.032C503.546 186.238 503.486 185.498 503.538 184.01L503.543 183.855L504.746 178.953L507.66 179.667L506.531 184.268C506.497 185.356 506.536 185.784 506.658 186.21C506.744 186.512 506.854 186.71 506.96 186.811C506.988 186.838 506.986 186.838 506.981 186.835C507.051 186.86 507.213 186.885 507.504 186.895L527.364 187.589Z" fill="white"/>
<mask id="mask8_8_749" style="mask-type:alpha" maskUnits="userSpaceOnUse" x="0" y="792" width="271" height="98">
<path d="M58.2547 825.361L0 889.242H271L243.467 842.216C225.525 811.573 192.679 792.742 157.17 792.742H132.145C104.024 792.742 77.2028 804.582 58.2547 825.361Z" fill="white"/>
</mask>
<g mask="url(#mask8_8_749)">
<path d="M58.2547 825.361L0 889.242H271L243.467 842.216C225.525 811.573 192.679 792.742 157.17 792.742H132.145C104.024 792.742 77.2028 804.582 58.2547 825.361Z" fill="#9fd177"/>
<path d="M32.5234 844.014L35.7728 840.514C59.1657 862.464 83.7348 873.385 109.551 873.385C130.269 873.385 153.264 863.396 168.299 846.55C186.173 826.524 191.857 798.87 181.88 765.553L186.44 764.172C196.888 799.063 190.847 828.457 171.844 849.748C155.892 867.621 131.601 878.172 109.551 878.172C82.4525 878.172 56.7533 866.75 32.5234 844.014ZM241.094 832.412L242.906 837.072C213.959 848.33 202.009 866.726 206.464 892.822L201.536 893.663C196.658 865.092 210.041 844.488 241.094 832.412Z" fill="white"/>
<path d="M39.5234 824.748C59.7579 843.66 81.2416 853.172 103.904 853.172C122.37 853.172 142.695 844.377 156.048 829.475C171.954 811.723 177.01 787.219 168.277 758.172L163.701 759.536C171.966 787.028 167.265 809.812 152.483 826.309C140.05 840.185 121.028 848.417 103.904 848.417C82.5341 848.417 62.1874 839.408 42.7929 821.281L39.5234 824.748Z" fill="white"/>
</g>
<path fill-rule="evenodd" clip-rule="evenodd" d="M295.946 242.242C300.446 260.242 295.946 268.742 280.946 268.742C270.946 268.742 260.946 264.076 250.946 254.742C256.28 264.076 253.28 268.742 241.946 268.742C224.946 268.742 222.446 258.183 222.446 257.242C222.446 256.301 221.833 240.234 225.446 236.742C227.303 234.948 235.813 234.948 250.974 236.742C277.955 228.409 292.946 230.242 295.946 242.242Z" fill="#c5e4ac"/>
<path fill-rule="evenodd" clip-rule="evenodd" d="M175.539 291.365C180.039 309.365 175.539 317.865 160.539 317.865C150.539 317.865 140.539 313.199 130.539 303.865C135.873 313.199 132.873 317.865 121.539 317.865C104.539 317.865 102.039 307.307 102.039 306.365C102.039 305.424 101.426 289.357 105.039 285.865C106.897 284.071 115.406 284.071 130.567 285.865C157.549 277.532 172.539 279.365 175.539 291.365Z" fill="#c5e4ac"/>
<path fill-rule="evenodd" clip-rule="evenodd" d="M513.5 164.742L502 137.742H500.5C477.304 137.742 458.5 118.938 458.5 95.7424V47.2424C458.5 24.0465 477.304 5.24243 500.5 5.24243H630.5C653.696 5.24243 672.5 24.0465 672.5 47.2424V95.7424C672.5 118.938 653.696 137.742 630.5 137.742H533.5L513.5 164.742Z" fill="#9fd177"/>
<path fill-rule="evenodd" clip-rule="evenodd" d="M416.826 442.622C416.826 442.622 441.755 400.862 439.711 383.538C438.468 373.006 448.983 340.061 471.254 284.702C474.998 275.398 485.499 270.632 494.96 273.943C504.613 277.322 510.101 287.34 507.74 297.271L495.007 350.811C493.622 356.633 497.254 362.404 503.119 363.701C504.15 363.929 505.212 364.007 506.27 363.932" fill="#B0BFDC"/>
<path fill-rule="evenodd" clip-rule="evenodd" d="M237.678 299.508L204.566 305.452C204.022 305.549 203.502 305.188 203.405 304.644C203.376 304.486 203.386 304.324 203.434 304.171L205.196 298.492C206.581 294.03 210.313 290.694 214.902 289.817L226.61 287.579L231.946 290.242L231.801 286.586L234.566 286.058C237.824 285.435 240.97 287.571 241.593 290.829C241.651 291.13 241.685 291.436 241.696 291.742L241.791 294.409C241.88 296.895 240.127 299.069 237.678 299.508ZM281.504 287.874C279.394 287.203 277.977 285.223 278.021 283.009L278.113 278.486C278.121 278.055 278.196 277.628 278.334 277.22C279.08 275.02 281.469 273.841 283.669 274.586L283.587 278.242L286.597 275.579L290.437 276.88C294.735 278.336 297.894 282.023 298.677 286.492L299.662 292.117C299.689 292.275 299.678 292.439 299.629 292.592C299.462 293.118 298.9 293.409 298.373 293.242L281.504 287.874Z" fill="#c5e4ac"/>
<path fill-rule="evenodd" clip-rule="evenodd" d="M262.739 400.582L279.684 391.572L281.733 407.891C282.131 411.063 281.13 414.251 278.99 416.625C274.923 421.138 267.967 421.499 263.454 417.432L259.651 414.004L257.617 422.846C256.622 427.171 253.876 430.888 250.035 433.109C242.386 437.534 232.599 434.92 228.174 427.27L220.034 413.196L209.28 435.466C207.169 439.838 203.187 443.015 198.455 444.102C189.843 446.081 181.257 440.704 179.278 432.092L174.557 411.544L166.712 423.702C164.086 427.772 159.757 430.433 154.939 430.939C146.151 431.863 138.279 425.487 137.355 416.699L135.358 397.688C151.628 396.234 162.99 396.252 169.446 397.742C171.135 398.132 172.56 398.64 173.722 399.264C177.493 397.544 182.734 397.037 189.446 397.742C195.516 398.38 203.732 400.109 214.095 402.929L213.104 401.216L264.464 393.081L262.739 400.582Z" fill="#c5e4ac"/>
<path d="M177.471 432.71C179.697 442.399 189.356 448.448 199.045 446.222C204.368 444.999 208.848 441.425 211.223 436.506L220.334 417.637L226.585 428.442C231.562 437.047 242.573 439.988 251.178 435.011C255.499 432.512 258.589 428.33 259.708 423.465L260.979 417.937L262.257 419.088C263.077 419.828 264.342 419.762 265.081 418.941C265.821 418.121 265.755 416.856 264.935 416.117L261.131 412.689C259.998 411.668 258.185 412.24 257.843 413.726L255.81 422.568C254.939 426.352 252.536 429.605 249.176 431.549C242.482 435.42 233.918 433.132 230.047 426.439L221.907 412.365C221.103 410.976 219.072 411.052 218.374 412.497L207.621 434.767C205.773 438.592 202.289 441.372 198.149 442.324C190.613 444.055 183.101 439.35 181.369 431.815L176.648 411.267C176.251 409.543 173.977 409.144 173.018 410.63L165.173 422.788C162.875 426.349 159.087 428.678 154.872 429.121C147.182 429.929 140.294 424.35 139.486 416.66L137.489 397.649C137.374 396.551 136.39 395.754 135.291 395.869C134.192 395.984 133.395 396.968 133.511 398.067L135.508 417.078C136.546 426.965 145.403 434.137 155.29 433.099C160.71 432.53 165.579 429.536 168.534 424.957L173.81 416.78L177.471 432.71Z" fill="#B0BFDC"/>
<path fill-rule="evenodd" clip-rule="evenodd" d="M139.865 221.471L93.945 228.125L74.1522 177.801C73.5458 176.259 71.8042 175.501 70.2624 176.108C69.0278 176.593 68.2588 177.832 68.3712 179.154L73.5139 239.6C74.0289 245.654 79.3536 250.143 85.4068 249.628C85.4561 249.624 85.5052 249.62 85.5544 249.615L140.065 244.237C146.878 243.564 151.914 237.584 151.416 230.757C151.01 225.179 146.158 220.987 140.581 221.394C140.341 221.411 140.103 221.437 139.865 221.471Z" fill="#9fd177"/>
<path fill-rule="evenodd" clip-rule="evenodd" d="M115.466 394.502L227 548.742L416.113 394.504C418.369 392.664 420.723 390.947 423.164 389.361L440.563 378.052C445.886 374.592 452.836 374.972 457.75 378.992C463.091 383.362 466.788 389.418 468.233 396.165L469 399.742L482.455 393.152C489.15 389.873 497.236 392.642 500.515 399.337C502.355 403.093 502.349 407.491 500.5 411.242L517.173 408.396C519.716 407.962 522.3 407.818 524.875 407.968L565.483 410.337C572.65 410.755 578.122 416.905 577.704 424.072C577.659 424.842 577.545 425.606 577.365 426.355L572.232 447.697C571.752 449.694 570.767 451.534 569.372 453.042L531.562 493.893C529.19 496.457 526.654 498.864 523.971 501.1L229.74 746.292C221.822 752.891 210.284 752.767 202.509 745.999L111.357 666.656C99.3773 656.229 92.4999 641.125 92.4999 625.242L87.7648 629.061C81.5257 634.093 72.5855 633.959 66.4999 628.742C60.0782 623.238 57.3669 614.548 59.5194 606.368L63.4999 591.242L58.4722 595.459C52.7068 600.295 44.1131 599.541 39.2776 593.775C39.2683 593.764 39.2591 593.753 39.2499 593.742C33.8015 587.204 32.0781 578.333 34.6824 570.23L39.4999 555.242L33.15 559.476C27.2681 563.397 19.4256 562.563 14.4999 557.492C9.38148 552.223 8.04639 544.342 11.144 537.681L75.9729 398.28C81.3294 386.762 95.0088 381.767 106.527 387.124C110.087 388.78 113.165 391.32 115.466 394.502Z" fill="#c5e4ac"/>
<path d="M180.666 482.136C180.055 481.216 178.814 480.965 177.894 481.576C176.973 482.187 176.723 483.429 177.334 484.349L220.834 549.849C221.473 550.811 222.791 551.033 223.71 550.335L248.71 531.335C249.59 530.666 249.761 529.412 249.092 528.532C248.424 527.653 247.169 527.482 246.29 528.15L222.987 545.86L180.666 482.136Z" fill="#B0BFDC"/>
<path d="M518.425 728.7C518.344 728.412 517.596 725.926 517.33 725.026C516.63 722.661 515.935 720.227 515.195 717.515C513.103 709.856 511.07 701.51 509.164 692.411C501.541 656.017 498 618.026 500.761 580.677C500.842 579.576 500.015 578.617 498.914 578.535C497.812 578.454 496.853 579.281 496.772 580.382C493.98 618.146 497.555 656.497 505.249 693.231C507.172 702.412 509.224 710.836 511.336 718.569C512.084 721.309 512.787 723.77 513.494 726.161C513.77 727.093 514.505 729.536 514.575 729.785C514.875 730.848 515.979 731.467 517.042 731.168C518.106 730.868 518.725 729.763 518.425 728.7Z" fill="#c5e4ac"/>
<path d="M190.62 71.5836L206.709 118.383C207.068 119.427 208.205 119.983 209.25 119.624C210.295 119.265 210.85 118.127 210.491 117.082L194.403 70.2832C194.044 69.2386 192.906 68.6829 191.862 69.042C190.817 69.4011 190.261 70.539 190.62 71.5836Z" fill="#7181A1"/>
<mask id="mask9_8_749" style="mask-type:alpha" maskUnits="userSpaceOnUse" x="121" y="290" width="43" height="55">
<path d="M153.284 344.667C131.761 343.774 121 334.905 121 318.06C121 300.733 132.386 291.644 155.158 290.793C154.59 291.857 154.17 293.3 154 295.242C153.435 301.698 156.488 304.874 163.16 304.77C151.566 313.86 145.68 322.017 145.5 329.242C145.342 335.578 148.112 341.286 153.284 344.667Z" fill="white"/>
</mask>
<g mask="url(#mask9_8_749)">
<path d="M153.284 344.667C131.761 343.774 121 334.905 121 318.06C121 300.733 132.386 291.644 155.158 290.793C154.59 291.857 154.17 293.3 154 295.242C153.435 301.698 156.488 304.874 163.16 304.77C151.566 313.86 145.68 322.017 145.5 329.242C145.342 335.578 148.112 341.286 153.284 344.667Z" fill="#B0BFDC"/>
</g>
<path d="M592.528 258.577C592.343 257.488 593.076 256.456 594.165 256.271C595.254 256.086 596.287 256.819 596.472 257.908L607.539 323.083C609.167 332.67 605.705 342.414 598.393 348.825L572.818 371.246C571.988 371.974 570.724 371.891 569.996 371.061C569.268 370.23 569.351 368.967 570.181 368.239L595.756 345.817C602.023 340.322 604.991 331.97 603.596 323.753L592.528 258.577ZM626.024 320.554C625.852 319.463 626.597 318.439 627.688 318.267C628.779 318.095 629.803 318.839 629.975 319.93L632.899 338.448C633.991 345.363 632.453 352.436 628.588 358.273L609.667 386.847C609.058 387.768 607.817 388.02 606.896 387.41C605.975 386.8 605.723 385.559 606.332 384.638L625.253 356.065C628.566 351.062 629.884 344.999 628.948 339.071L626.024 320.554ZM562.929 280.216C563.22 281.282 562.592 282.381 561.526 282.672C560.46 282.963 559.361 282.334 559.07 281.269L556.07 270.269C555.78 269.203 556.408 268.103 557.474 267.813C558.539 267.522 559.639 268.15 559.929 269.216L562.929 280.216ZM481.501 274.669C481.542 273.565 482.469 272.703 483.573 272.744C484.677 272.784 485.539 273.712 485.499 274.816C484.801 293.817 477.59 304.995 463.888 307.704C462.804 307.919 461.752 307.214 461.538 306.13C461.324 305.047 462.028 303.995 463.112 303.78C474.743 301.48 480.865 291.991 481.501 274.669Z" fill="#7181A1"/>
<path d="M539.468 77.2704V86.6944H530.788V93.7624H519.628V86.6944H489V77.2704L519.628 50.3624H530.788V77.2704H539.468ZM501.028 77.2704H519.628V61.5224L501.028 77.2704ZM567.802 94.3824C550.566 94.3824 542.382 86.4464 542.382 72.0004C542.382 57.6164 550.566 49.7424 567.802 49.7424C584.976 49.7424 593.222 57.6784 593.222 72.0004C593.222 86.3844 584.976 94.3824 567.802 94.3824ZM567.802 85.0204C577.598 85.0204 582.062 80.1224 582.062 72.0004C582.062 63.9404 577.598 59.1044 567.802 59.1044C558.006 59.1044 553.542 63.8784 553.542 72.0004C553.542 80.1844 558.006 85.0204 567.802 85.0204ZM647.348 77.2704V86.6944H638.668V93.7624H627.508V86.6944H596.88V77.2704L627.508 50.3624H638.668V77.2704H647.348ZM608.908 77.2704H627.508V61.5224L608.908 77.2704Z" fill="white"/>
</svg>
